<svg width="1920" height="1864" viewBox="0 0 1920 1864" fill="none" xmlns="http://www.w3.org/2000/svg">
<g clip-path="url(#clip0_58_134)">
<g filter="url(#filter0_f_58_134)">
<path d="M642.273 1085.38C966.362 1472.64 1224.09 1947.26 836.83 2271.35C449.567 2595.44 -127.097 2544.22 -451.185 2156.96C-775.274 1769.7 -724.062 1193.04 -336.799 868.947C50.463 544.858 733.218 143.366 642.273 1085.38Z" fill="#78B07E" fill-opacity="0.3"/>
</g>
<g filter="url(#filter1_f_58_134)">
<path d="M2698.74 1703.96C2308.21 2380.38 2405.92 986.896 1347.19 1838.36C2077.75 469.659 1347.19 992 729.088 566.775C1119.62 -109.649 1877.13 -403.433 2421.04 -89.4097C2964.94 224.614 3089.28 1027.53 2698.74 1703.96Z" fill="#277EB8" fill-opacity="0.3"/>
</g>
</g>
<defs>
<filter id="filter0_f_58_134" x="-995.155" y="169.104" width="2357.26" height="2646.21" filterUnits="userSpaceOnUse" color-interpolation-filters="sRGB">
<feFlood flood-opacity="0" result="BackgroundImageFix"/>
<feBlend mode="normal" in="SourceGraphic" in2="BackgroundImageFix" result="shape"/>
<feGaussianBlur stdDeviation="165.4" result="effect1_foregroundBlur_58_134"/>
</filter>
<filter id="filter1_f_58_134" x="398.288" y="-546.08" width="2858.92" height="2773.1" filterUnits="userSpaceOnUse" color-interpolation-filters="sRGB">
<feFlood flood-opacity="0" result="BackgroundImageFix"/>
<feBlend mode="normal" in="SourceGraphic" in2="BackgroundImageFix" result="shape"/>
<feGaussianBlur stdDeviation="165.4" result="effect1_foregroundBlur_58_134"/>
</filter>
<clipPath id="clip0_58_134">
<rect width="1920" height="1864" fill="white"/>
</clipPath>
</defs>
</svg>
