<svg width="881" height="710" viewBox="0 0 881 710" fill="none" xmlns="http://www.w3.org/2000/svg">
<path d="M305.393 411.689C305.293 475.347 326.398 537.226 365.378 587.557H821.015C859.994 537.226 881.099 475.347 881 411.689C881 252.748 752.141 123.911 593.189 123.911C434.238 123.911 305.393 252.748 305.393 411.689Z" fill="white"/>
<path opacity="0.1" d="M0.000565086 440.686C-0.152544 538.169 32.1507 632.926 91.8108 710H789.189C848.849 632.926 881.152 538.169 880.999 440.686C880.999 197.294 683.774 0 440.49 0C197.205 0 0.000565086 197.294 0.000565086 440.686Z" fill="#88B3CF"/>
<path d="M753.218 541.434L758.56 588.727H564.903L567.89 541.137L753.218 541.434Z" fill="#262626"/>
<path d="M661.445 339.218C692.282 337.766 693.58 311.593 693.58 311.593C693.58 311.593 708.859 312.581 719.016 313.955C735.645 316.204 753.273 321.914 761.274 335.739C767.025 345.68 768.409 347.479 763.178 403.573C759.39 444.189 753.219 541.436 753.219 541.436L567.891 541.139C567.891 541.139 559.643 416.427 558.087 398.143C555.118 363.241 550.431 314.047 560.38 311.591C571.972 308.731 609.809 313.434 622.048 311.591C622.255 311.564 619.451 341.198 661.445 339.218Z" fill="#277EB8"/>
<path d="M327.723 214.949L324.137 206.637C323.59 205.469 323.508 204.137 323.906 202.91C324.304 201.684 325.154 200.654 326.282 200.03C326.876 199.728 327.524 199.55 328.189 199.507C328.853 199.464 329.52 199.557 330.147 199.779C330.775 200.002 331.35 200.351 331.838 200.804C332.327 201.256 332.718 201.804 332.987 202.412" fill="#E98862"/>
<path d="M584.15 464.359C584.248 465.644 584.832 466.844 585.782 467.715C586.732 468.586 587.978 469.063 589.267 469.049L593.389 469.099C593.33 469.14 593.282 469.194 593.249 469.257C593.215 469.32 593.198 469.39 593.197 469.461C593.196 469.548 593.223 469.632 593.273 469.703C592.349 470.193 591.605 470.966 591.152 471.909C590.699 472.852 590.56 473.916 590.755 474.944C590.996 476.076 591.62 477.091 592.522 477.817C593.424 478.543 594.549 478.937 595.706 478.931L630.847 479.311C635.764 479.367 640.586 477.953 644.693 475.25C648.801 472.546 652.007 468.677 653.899 464.139L660.006 449.527L641.305 445.547L640.858 440.886L612.622 428.15C612.015 427.876 611.359 427.728 610.693 427.716C610.028 427.704 609.366 427.828 608.75 428.08C608.134 428.332 607.575 428.707 607.109 429.181C606.642 429.656 606.277 430.221 606.036 430.842C605.611 432.059 605.664 433.393 606.185 434.573C606.705 435.753 607.654 436.692 608.84 437.199L614.879 439.92L591.892 440.074C589.332 440.045 586.179 441.643 586.337 444.506C586.324 445.614 586.687 446.694 587.367 447.568C588.047 448.443 589.004 449.061 590.081 449.321C590.081 449.349 590.076 449.369 590.074 449.398L590.088 449.45L586.147 449.408C585.42 449.4 584.701 449.553 584.041 449.857C583.38 450.16 582.796 450.607 582.33 451.164C581.863 451.721 581.527 452.375 581.344 453.078C581.162 453.782 581.138 454.517 581.274 455.23C581.512 456.362 582.134 457.376 583.034 458.101C583.934 458.826 585.057 459.218 586.214 459.21L587.9 459.234C587.923 459.279 587.951 459.322 587.982 459.362C586.858 459.613 585.859 460.251 585.158 461.164C584.458 462.078 584.101 463.209 584.15 464.359Z" fill="#EEAF96"/>
<g opacity="0.2">
<path d="M612.841 449.292C612.839 449.41 612.79 449.523 612.706 449.606C612.621 449.689 612.507 449.736 612.389 449.736L590.529 449.85C590.409 449.85 590.294 449.802 590.209 449.717C590.124 449.632 590.077 449.517 590.077 449.397C590.077 449.277 590.124 449.162 590.209 449.078C590.294 448.993 590.409 448.945 590.529 448.945L612.389 448.831C612.509 448.831 612.624 448.879 612.708 448.964C612.793 449.048 612.841 449.164 612.841 449.283V449.292Z" fill="#0C0C0C"/>
</g>
<g opacity="0.2">
<path d="M613.157 458.93C613.155 459.049 613.106 459.162 613.022 459.245C612.937 459.328 612.824 459.375 612.705 459.374L588.31 459.502C588.19 459.502 588.075 459.454 587.99 459.37C587.906 459.285 587.858 459.17 587.858 459.05C587.862 458.931 587.911 458.818 587.995 458.734C588.079 458.65 588.191 458.601 588.31 458.598L612.705 458.471C612.825 458.471 612.94 458.519 613.025 458.603C613.11 458.688 613.157 458.803 613.157 458.923V458.93Z" fill="#0C0C0C"/>
</g>
<g opacity="0.2">
<path d="M613.56 469.368C613.557 469.486 613.509 469.599 613.424 469.682C613.34 469.765 613.226 469.812 613.107 469.812L593.648 469.913C593.528 469.913 593.413 469.866 593.329 469.781C593.244 469.696 593.196 469.581 593.196 469.461C593.196 469.341 593.244 469.226 593.329 469.141C593.413 469.056 593.528 469.009 593.648 469.009L613.107 468.908C613.227 468.908 613.342 468.955 613.427 469.04C613.512 469.125 613.56 469.24 613.56 469.36V469.368Z" fill="#0C0C0C"/>
</g>
<path d="M632.662 489.769L779.796 515.976C785.977 517.617 792.497 517.477 798.602 515.572C804.707 513.667 810.149 510.075 814.3 505.21C818.452 500.345 821.143 494.406 822.064 488.077C822.984 481.749 822.097 475.289 819.504 469.443L765.921 344.809C758.323 327.685 739.545 319.962 722.423 327.559C714.2 331.206 707.763 337.971 704.528 346.364C701.293 354.758 701.524 364.092 705.172 372.315L736.638 446.9L638.238 433.826L632.662 489.769Z" fill="#277EB8"/>
<path d="M754.44 512.084C754.398 512.085 754.356 512.079 754.315 512.066L632.538 490.204C632.425 490.171 632.329 490.096 632.271 489.993C632.213 489.891 632.197 489.77 632.226 489.656L637.801 431.902C637.83 431.788 637.904 431.689 638.005 431.628C638.107 431.567 638.228 431.548 638.343 431.576L735.825 446.248L704.772 372.51C704.727 372.403 704.725 372.283 704.766 372.175C704.807 372.066 704.888 371.978 704.993 371.927C705.097 371.877 705.217 371.869 705.328 371.904C705.438 371.94 705.531 372.017 705.586 372.119L737.046 446.704C737.082 446.781 737.096 446.866 737.086 446.95C737.076 447.034 737.042 447.114 736.989 447.18C736.936 447.246 736.865 447.296 736.785 447.323C736.705 447.351 736.619 447.356 736.536 447.337L638.565 432.552L633.213 489.453L754.566 511.2C754.671 511.23 754.762 511.297 754.821 511.388C754.881 511.48 754.905 511.59 754.89 511.698C754.875 511.807 754.821 511.906 754.738 511.977C754.655 512.049 754.549 512.088 754.44 512.087V512.084Z" fill="#0C0C0C"/>
<path d="M748.816 448.98C748.784 448.98 748.752 448.976 748.72 448.969L736.541 447.341C736.482 447.329 736.427 447.305 736.377 447.271C736.328 447.237 736.286 447.194 736.253 447.144C736.221 447.094 736.199 447.038 736.188 446.979C736.177 446.92 736.178 446.86 736.191 446.802C736.204 446.743 736.228 446.688 736.262 446.639C736.296 446.59 736.34 446.548 736.39 446.516C736.441 446.484 736.497 446.462 736.556 446.452C736.615 446.442 736.675 446.444 736.733 446.457L748.913 448.085C749.021 448.109 749.117 448.173 749.182 448.263C749.247 448.353 749.276 448.465 749.264 448.575C749.252 448.686 749.2 448.788 749.117 448.862C749.034 448.937 748.927 448.978 748.816 448.979V448.98Z" fill="#0C0C0C"/>
<path d="M556.364 378.117C556.25 378.117 556.14 378.075 556.056 377.997C555.972 377.92 555.92 377.814 555.912 377.7L553.896 351.616C553.887 351.496 553.926 351.378 554.004 351.286C554.082 351.195 554.194 351.139 554.314 351.129C554.434 351.12 554.552 351.159 554.644 351.237C554.735 351.315 554.792 351.427 554.801 351.547L556.816 377.63C556.825 377.75 556.786 377.868 556.708 377.959C556.63 378.05 556.519 378.106 556.4 378.115C556.388 378.117 556.376 378.117 556.364 378.117Z" fill="#0C0C0C"/>
<path d="M826.62 589.631H359.772C359.532 589.631 359.302 589.536 359.133 589.366C358.963 589.197 358.868 588.966 358.868 588.727C358.868 588.487 358.963 588.257 359.133 588.087C359.302 587.917 359.532 587.822 359.772 587.822H826.62C826.86 587.822 827.09 587.917 827.259 588.087C827.429 588.257 827.524 588.487 827.524 588.727C827.524 588.966 827.429 589.197 827.259 589.366C827.09 589.536 826.86 589.631 826.62 589.631Z" fill="#292A2E"/>
<path d="M619.892 221.681C619.892 221.681 609.434 209.937 610.647 187.944C611.586 170.915 624.722 184.687 624.722 184.687C624.722 184.687 625.518 172.432 633.977 175.35C642.436 178.268 644.812 191.781 644.812 191.781" fill="#0C0C0C"/>
<path d="M678.666 185.709C678.666 185.709 720.906 198.939 693.645 254.313L689.775 253.807L681.918 252.781" fill="#0C0C0C"/>
<path d="M618.576 312.047C618.77 312.022 620.917 347.649 662.309 344.543C690.963 342.397 701.18 311.997 701.837 311.997C698.747 311.34 693.544 310.385 692.172 309.653C687.66 307.229 682.078 304.706 680.623 295.945C679.785 290.894 681.207 265.06 680.77 259.95L636.784 269.766C637.399 280.557 641.701 305.574 626.624 310.002C624.115 310.734 621.411 311.407 618.576 312.047Z" fill="#EEAF96"/>
<path opacity="0.52" d="M636.168 299.778C636.857 297.558 637.3 295.269 637.49 292.952C637.975 287.665 637.878 282.341 637.203 277.075C646.143 275.868 654.566 272.179 661.514 266.425C662.33 269.441 666.822 282.62 665.578 285.487C663.228 290.905 652.18 299.778 636.168 299.778Z" fill="#0C0C0C"/>
<path d="M641.443 287.713C658.764 289.579 681.275 282.886 686.175 259.846L690.595 239.056C695.489 216.02 687.362 194.766 665.666 190.154C643.971 185.543 623.784 200.774 618.886 223.814L616.929 233.018C616.313 236.19 615.913 239.4 615.733 242.626C615.193 251.149 614.407 264.114 618.34 273.775C622.052 282.895 630.376 286.521 641.443 287.713Z" fill="#EEAF96"/>
<path d="M627.683 234.634C629.192 234.634 630.415 233.411 630.415 231.902C630.415 230.394 629.192 229.171 627.683 229.171C626.174 229.171 624.951 230.394 624.951 231.902C624.951 233.411 626.174 234.634 627.683 234.634Z" fill="#0C0C0C"/>
<path d="M653.627 237.365C655.136 237.365 656.359 236.142 656.359 234.634C656.359 233.125 655.136 231.902 653.627 231.902C652.119 231.902 650.896 233.125 650.896 234.634C650.896 236.142 652.119 237.365 653.627 237.365Z" fill="#0C0C0C"/>
<path d="M683.334 266.579C689.928 267.981 696.772 262.064 698.174 255.471C699.575 248.878 695.003 244.107 688.41 242.705L684.074 246.4L677.666 265.374L683.334 266.579Z" fill="#EEAF96"/>
<path d="M678.879 254.648C678.879 254.648 683.163 221.518 673.653 217.524C667.324 214.864 649.446 221.036 635.182 215.253C628.942 212.722 622.463 213.102 621.226 216.041C620.736 217.204 620.17 198.966 632.966 187.759C643.154 178.837 670.214 181.138 681.567 186.992C713.002 203.202 689.49 244.417 689.49 244.417L685.756 255.386L678.879 254.648Z" fill="#0C0C0C"/>
<g opacity="0.52">
<path d="M634.789 257.018L634.746 257.012C632.62 256.565 629.104 255.577 629.436 253.99C629.714 252.673 636.304 239.207 637.056 237.676C637.121 237.544 637.235 237.444 637.374 237.396C637.513 237.349 637.665 237.358 637.796 237.423C637.928 237.487 638.029 237.602 638.076 237.74C638.124 237.879 638.114 238.031 638.05 238.163C635.126 244.125 630.708 253.322 630.519 254.217C630.649 254.639 632.772 255.467 634.972 255.928C635.11 255.959 635.231 256.042 635.31 256.159C635.389 256.277 635.42 256.42 635.397 256.56C635.373 256.7 635.297 256.825 635.184 256.91C635.071 256.996 634.93 257.034 634.789 257.018Z" fill="#0C0C0C"/>
</g>
<path d="M634.298 223.358C632.21 222.304 629.875 221.832 627.541 221.993C626.394 222.065 625.265 222.309 624.19 222.716C623.127 223.114 622.118 223.645 621.188 224.296C621.033 224.395 620.923 224.551 620.881 224.731C620.84 224.91 620.871 225.099 620.967 225.256C621.064 225.413 621.219 225.526 621.398 225.57C621.577 225.614 621.766 225.586 621.924 225.492L621.973 225.464C622.826 224.935 623.742 224.515 624.7 224.215C625.644 223.913 626.628 223.756 627.619 223.75C629.577 223.721 631.509 224.211 633.217 225.168L633.282 225.206C633.401 225.278 633.534 225.325 633.671 225.344C633.809 225.364 633.95 225.357 634.085 225.322C634.219 225.287 634.346 225.226 634.457 225.143C634.568 225.059 634.662 224.954 634.732 224.834C634.803 224.714 634.849 224.581 634.868 224.443C634.887 224.305 634.878 224.165 634.843 224.03C634.807 223.895 634.745 223.769 634.661 223.658C634.576 223.548 634.47 223.455 634.35 223.385L634.298 223.358Z" fill="#0C0C0C"/>
<path d="M649.918 227.579C651.815 227.093 653.807 227.116 655.693 227.646C656.649 227.907 657.559 228.312 658.394 228.845C659.242 229.382 660.019 230.023 660.708 230.753L660.746 230.791C660.876 230.917 661.05 230.988 661.231 230.989C661.412 230.99 661.587 230.921 661.718 230.797C661.85 230.672 661.928 230.502 661.937 230.321C661.946 230.14 661.885 229.963 661.766 229.826C661.034 228.958 660.196 228.186 659.271 227.528C658.337 226.859 657.308 226.333 656.218 225.968C654.004 225.212 651.628 225.067 649.338 225.547C649.202 225.576 649.074 225.632 648.96 225.711C648.846 225.79 648.749 225.891 648.674 226.008C648.523 226.243 648.471 226.529 648.531 226.803C648.591 227.077 648.757 227.315 648.992 227.467C649.228 227.618 649.514 227.669 649.788 227.61L649.842 227.596L649.918 227.579Z" fill="#0C0C0C"/>
<path d="M631.446 262.13C637.599 263.667 644.089 263.11 649.89 260.547C650.091 260.459 650.313 260.43 650.529 260.464C650.746 260.498 650.949 260.593 651.114 260.737C651.278 260.882 651.399 261.07 651.461 261.281C651.522 261.491 651.523 261.715 651.463 261.925C650.383 265.529 647.344 271.967 639.472 271.434C634.388 271.091 631.468 266.613 630.104 263.741C630.01 263.541 629.975 263.319 630.002 263.101C630.03 262.882 630.12 262.676 630.261 262.507C630.402 262.337 630.588 262.212 630.798 262.145C631.009 262.078 631.233 262.073 631.446 262.13Z" fill="white"/>
<path d="M655.861 192.48C658.801 185.579 657.384 178.365 652.695 176.368C648.006 174.371 641.822 178.346 638.882 185.247C635.942 192.148 637.36 199.361 642.048 201.358C646.737 203.355 652.921 199.38 655.861 192.48Z" fill="#0C0C0C"/>
<path d="M351.606 199.699C351.336 199.09 350.945 198.543 350.457 198.09C349.968 197.637 349.393 197.289 348.766 197.066C348.138 196.843 347.472 196.75 346.807 196.793C346.143 196.837 345.494 197.015 344.901 197.317C343.772 197.941 342.923 198.971 342.525 200.197C342.126 201.424 342.209 202.756 342.755 203.924L345.437 209.975L328.207 194.762C326.321 193.037 322.903 192.126 321.107 194.369C320.361 195.187 319.914 196.234 319.839 197.339C319.764 198.444 320.066 199.541 320.696 200.452C320.673 200.467 320.652 200.484 320.633 200.503C320.623 200.519 320.613 200.535 320.605 200.552L317.696 197.892C317.161 197.403 316.523 197.038 315.83 196.825C315.136 196.612 314.404 196.555 313.686 196.659C312.968 196.763 312.282 197.025 311.677 197.425C311.072 197.826 310.564 198.356 310.189 198.977C309.611 199.981 309.398 201.153 309.586 202.295C309.773 203.438 310.35 204.48 311.218 205.246L312.456 206.378C312.439 206.43 312.432 206.485 312.435 206.54C311.432 205.974 310.261 205.78 309.129 205.991C307.996 206.203 306.975 206.806 306.243 207.696C305.46 208.721 305.096 210.005 305.223 211.288C305.35 212.571 305.96 213.758 306.93 214.609L309.972 217.391C309.9 217.382 309.828 217.39 309.76 217.415C309.693 217.439 309.632 217.479 309.583 217.532C309.527 217.598 309.493 217.678 309.482 217.763C308.467 217.512 307.397 217.592 306.431 217.993C305.464 218.393 304.651 219.092 304.11 219.988C303.533 220.991 303.32 222.163 303.508 223.306C303.695 224.448 304.272 225.491 305.14 226.257L331.075 249.98C334.704 253.298 339.241 255.457 344.105 256.181C348.969 256.904 353.938 256.158 358.375 254.039L372.661 247.216L351.606 199.699Z" fill="#EEAF96"/>
<g opacity="0.2">
<path d="M337.671 215.599C337.59 215.686 337.479 215.738 337.361 215.744C337.242 215.75 337.126 215.709 337.038 215.63L320.671 201.142C320.627 201.102 320.591 201.054 320.565 201.001C320.539 200.948 320.523 200.89 320.52 200.83C320.516 200.771 320.524 200.712 320.543 200.655C320.563 200.599 320.593 200.548 320.632 200.503C320.672 200.459 320.72 200.422 320.773 200.396C320.826 200.37 320.884 200.355 320.944 200.351C321.003 200.348 321.062 200.356 321.119 200.375C321.175 200.395 321.227 200.425 321.271 200.464L337.643 214.954C337.687 214.993 337.724 215.041 337.749 215.094C337.775 215.148 337.791 215.206 337.794 215.265C337.798 215.324 337.789 215.384 337.77 215.44C337.751 215.496 337.72 215.548 337.681 215.592L337.671 215.599Z" fill="#0C0C0C"/>
</g>
<g opacity="0.2">
<path d="M331.478 222.993C331.398 223.081 331.286 223.133 331.168 223.139C331.05 223.145 330.934 223.104 330.845 223.025L312.58 206.854C312.536 206.815 312.499 206.767 312.473 206.714C312.447 206.66 312.432 206.602 312.428 206.543C312.425 206.484 312.433 206.424 312.452 206.368C312.472 206.312 312.502 206.26 312.541 206.216C312.623 206.129 312.734 206.077 312.853 206.07C312.972 206.063 313.088 206.102 313.18 206.178L331.446 222.348C331.49 222.387 331.526 222.435 331.552 222.488C331.578 222.542 331.593 222.6 331.597 222.659C331.6 222.718 331.592 222.778 331.573 222.834C331.553 222.89 331.523 222.942 331.484 222.986L331.478 222.993Z" fill="#0C0C0C"/>
</g>
<g opacity="0.2">
<path d="M324.819 231.04C324.739 231.128 324.628 231.18 324.509 231.186C324.391 231.192 324.275 231.151 324.186 231.072L309.615 218.173C309.525 218.094 309.471 217.982 309.464 217.862C309.457 217.742 309.497 217.624 309.577 217.534C309.656 217.445 309.769 217.39 309.888 217.383C310.008 217.376 310.126 217.416 310.216 217.496L324.786 230.395C324.83 230.434 324.867 230.482 324.893 230.535C324.919 230.588 324.934 230.646 324.938 230.706C324.941 230.765 324.933 230.824 324.914 230.881C324.894 230.937 324.864 230.989 324.825 231.033L324.819 231.04Z" fill="#0C0C0C"/>
</g>
<path d="M372.848 218.879L464.544 299.612L591.476 311.919C599.616 312.652 607.178 316.738 612.581 323.322C617.984 329.907 620.811 338.481 620.472 347.253C620.132 356.025 616.651 364.316 610.757 370.395C604.863 376.474 597.012 379.869 588.843 379.873C587.948 379.873 587.047 379.831 586.141 379.749L449.245 366.536C442.761 365.946 436.603 363.224 431.609 358.739L335.576 267.171L372.848 218.879Z" fill="#277EB8"/>
<rect x="35" y="94" width="403" height="79" rx="12" fill="#E8F0F6"/>
<g filter="url(#filter0_f_169_349)">
<path d="M53.396 126.5L52.64 124.256H49.424L48.668 126.5H47L50.132 117.896H51.932L55.076 126.5H53.396ZM51.5 120.728C51.468 120.616 51.42 120.464 51.356 120.272C51.3 120.072 51.24 119.872 51.176 119.672C51.12 119.464 51.072 119.292 51.032 119.156C50.992 119.316 50.94 119.504 50.876 119.72C50.82 119.928 50.764 120.128 50.708 120.32C50.652 120.504 50.608 120.64 50.576 120.728L49.844 122.924H52.244L51.5 120.728ZM58.6742 126.62C58.0502 126.62 57.5102 126.504 57.0542 126.272C56.6062 126.032 56.2582 125.668 56.0102 125.18C55.7702 124.684 55.6502 124.052 55.6502 123.284C55.6502 122.484 55.7862 121.836 56.0582 121.34C56.3302 120.836 56.7022 120.464 57.1742 120.224C57.6462 119.984 58.1902 119.864 58.8062 119.864C59.2142 119.864 59.5782 119.908 59.8982 119.996C60.2182 120.076 60.4942 120.172 60.7262 120.284L60.2702 121.496C60.0142 121.392 59.7622 121.308 59.5142 121.244C59.2662 121.172 59.0262 121.136 58.7942 121.136C58.4422 121.136 58.1502 121.216 57.9182 121.376C57.6862 121.536 57.5142 121.776 57.4022 122.096C57.2902 122.408 57.2342 122.8 57.2342 123.272C57.2342 123.728 57.2902 124.112 57.4022 124.424C57.5222 124.728 57.6982 124.96 57.9302 125.12C58.1622 125.272 58.4422 125.348 58.7702 125.348C59.1382 125.348 59.4622 125.304 59.7422 125.216C60.0302 125.12 60.3022 124.996 60.5582 124.844V126.176C60.3022 126.328 60.0302 126.44 59.7422 126.512C59.4542 126.584 59.0982 126.62 58.6742 126.62ZM64.7094 126.62C64.0854 126.62 63.5454 126.504 63.0894 126.272C62.6414 126.032 62.2934 125.668 62.0454 125.18C61.8054 124.684 61.6854 124.052 61.6854 123.284C61.6854 122.484 61.8214 121.836 62.0934 121.34C62.3654 120.836 62.7374 120.464 63.2094 120.224C63.6814 119.984 64.2254 119.864 64.8414 119.864C65.2494 119.864 65.6134 119.908 65.9334 119.996C66.2534 120.076 66.5294 120.172 66.7614 120.284L66.3054 121.496C66.0494 121.392 65.7974 121.308 65.5494 121.244C65.3014 121.172 65.0614 121.136 64.8294 121.136C64.4774 121.136 64.1854 121.216 63.9534 121.376C63.7214 121.536 63.5494 121.776 63.4374 122.096C63.3254 122.408 63.2694 122.8 63.2694 123.272C63.2694 123.728 63.3254 124.112 63.4374 124.424C63.5574 124.728 63.7334 124.96 63.9654 125.12C64.1974 125.272 64.4774 125.348 64.8054 125.348C65.1734 125.348 65.4974 125.304 65.7774 125.216C66.0654 125.12 66.3374 124.996 66.5934 124.844V126.176C66.3374 126.328 66.0654 126.44 65.7774 126.512C65.4894 126.584 65.1334 126.62 64.7094 126.62ZM73.9365 123.236C73.9365 123.956 73.8085 124.568 73.5525 125.072C73.3045 125.576 72.9445 125.96 72.4725 126.224C72.0085 126.488 71.4525 126.62 70.8045 126.62C70.2125 126.62 69.6845 126.488 69.2205 126.224C68.7565 125.96 68.3885 125.576 68.1165 125.072C67.8525 124.568 67.7205 123.956 67.7205 123.236C67.7205 122.156 68.0005 121.324 68.5605 120.74C69.1205 120.156 69.8845 119.864 70.8525 119.864C71.4605 119.864 71.9925 119.996 72.4485 120.26C72.9125 120.524 73.2765 120.908 73.5405 121.412C73.8045 121.908 73.9365 122.516 73.9365 123.236ZM69.3045 123.236C69.3045 123.692 69.3565 124.08 69.4605 124.4C69.5645 124.712 69.7285 124.952 69.9525 125.12C70.1845 125.288 70.4805 125.372 70.8405 125.372C71.1925 125.372 71.4805 125.288 71.7045 125.12C71.9285 124.952 72.0925 124.712 72.1965 124.4C72.3085 124.08 72.3645 123.692 72.3645 123.236C72.3645 122.772 72.3085 122.384 72.1965 122.072C72.0925 121.76 71.9285 121.524 71.7045 121.364C71.4805 121.204 71.1885 121.124 70.8285 121.124C70.2925 121.124 69.9045 121.304 69.6645 121.664C69.4245 122.024 69.3045 122.548 69.3045 123.236ZM81.2836 119.984V126.5H80.0836L79.8676 125.66H79.7836C79.6476 125.884 79.4716 126.068 79.2556 126.212C79.0476 126.348 78.8156 126.448 78.5596 126.512C78.3036 126.584 78.0396 126.62 77.7676 126.62C77.2876 126.62 76.8716 126.536 76.5196 126.368C76.1676 126.2 75.8956 125.944 75.7036 125.6C75.5196 125.248 75.4276 124.796 75.4276 124.244V119.984H76.9756V123.92C76.9756 124.4 77.0716 124.764 77.2636 125.012C77.4556 125.252 77.7556 125.372 78.1636 125.372C78.7636 125.372 79.1756 125.184 79.3996 124.808C79.6236 124.424 79.7356 123.876 79.7356 123.164V119.984H81.2836ZM86.7143 119.864C87.4423 119.864 88.0103 120.056 88.4183 120.44C88.8343 120.816 89.0423 121.42 89.0423 122.252V126.5H87.5063V122.576C87.5063 122.088 87.4103 121.724 87.2183 121.484C87.0263 121.236 86.7263 121.112 86.3183 121.112C85.7183 121.112 85.3063 121.304 85.0823 121.688C84.8583 122.072 84.7463 122.62 84.7463 123.332V126.5H83.1983V119.984H84.3983L84.6143 120.836H84.6983C84.8423 120.612 85.0183 120.432 85.2263 120.296C85.4343 120.152 85.6663 120.044 85.9223 119.972C86.1783 119.9 86.4423 119.864 86.7143 119.864ZM93.4769 125.384C93.6689 125.384 93.8529 125.368 94.0289 125.336C94.2049 125.296 94.3729 125.252 94.5329 125.204V126.356C94.3649 126.428 94.1529 126.488 93.8969 126.536C93.6409 126.592 93.3689 126.62 93.0809 126.62C92.7049 126.62 92.3649 126.56 92.0609 126.44C91.7649 126.312 91.5249 126.096 91.3409 125.792C91.1649 125.48 91.0769 125.052 91.0769 124.508V121.16H90.2129V120.488L91.1729 119.948L91.6529 118.568H92.6249V119.984H94.4729V121.16H92.6249V124.496C92.6249 124.792 92.7049 125.016 92.8649 125.168C93.0249 125.312 93.2289 125.384 93.4769 125.384ZM107.397 126.5H105.441L101.421 119.804H101.373C101.389 120.052 101.401 120.308 101.409 120.572C101.425 120.836 101.437 121.108 101.445 121.388C101.461 121.66 101.473 121.936 101.481 122.216V126.5H100.065V117.932H102.009L106.017 124.58H106.053C106.045 124.356 106.037 124.116 106.029 123.86C106.021 123.596 106.009 123.328 105.993 123.056C105.985 122.776 105.977 122.508 105.969 122.252V117.932H107.397V126.5ZM112.064 119.864C112.912 119.864 113.556 120.048 113.996 120.416C114.436 120.784 114.656 121.356 114.656 122.132V126.5H113.564L113.264 125.6H113.216C113.032 125.832 112.84 126.028 112.64 126.188C112.448 126.34 112.224 126.448 111.968 126.512C111.72 126.584 111.412 126.62 111.044 126.62C110.46 126.62 109.976 126.456 109.592 126.128C109.208 125.8 109.016 125.292 109.016 124.604C109.016 123.924 109.264 123.416 109.76 123.08C110.256 122.744 111.004 122.56 112.004 122.528L113.12 122.492V122.168C113.12 121.76 113.02 121.468 112.82 121.292C112.628 121.116 112.356 121.028 112.004 121.028C111.676 121.028 111.36 121.076 111.056 121.172C110.752 121.268 110.456 121.38 110.168 121.508L109.664 120.44C109.992 120.264 110.36 120.124 110.768 120.02C111.184 119.916 111.616 119.864 112.064 119.864ZM112.34 123.452C111.692 123.476 111.24 123.592 110.984 123.8C110.736 124 110.612 124.272 110.612 124.616C110.612 124.912 110.7 125.128 110.876 125.264C111.06 125.4 111.292 125.468 111.572 125.468C112.012 125.468 112.38 125.344 112.676 125.096C112.972 124.84 113.12 124.468 113.12 123.98V123.428L112.34 123.452ZM124.026 119.864C124.762 119.864 125.314 120.056 125.682 120.44C126.058 120.816 126.246 121.42 126.246 122.252V126.5H124.71V122.564C124.71 122.084 124.622 121.724 124.446 121.484C124.27 121.236 123.994 121.112 123.618 121.112C123.098 121.112 122.726 121.284 122.502 121.628C122.278 121.972 122.166 122.472 122.166 123.128V126.5H120.63V122.564C120.63 122.084 120.538 121.724 120.354 121.484C120.178 121.236 119.902 121.112 119.526 121.112C119.166 121.112 118.882 121.2 118.674 121.376C118.466 121.544 118.314 121.792 118.218 122.12C118.13 122.448 118.086 122.852 118.086 123.332V126.5H116.538V119.984H117.738L117.954 120.836H118.038C118.174 120.612 118.338 120.432 118.53 120.296C118.73 120.152 118.95 120.044 119.19 119.972C119.438 119.9 119.686 119.864 119.934 119.864C120.422 119.864 120.834 119.948 121.17 120.116C121.506 120.276 121.758 120.528 121.926 120.872H122.046C122.254 120.52 122.538 120.264 122.898 120.104C123.258 119.944 123.634 119.864 124.026 119.864ZM130.756 119.864C131.348 119.864 131.856 119.984 132.28 120.224C132.704 120.456 133.028 120.792 133.252 121.232C133.484 121.672 133.6 122.2 133.6 122.816V123.608H129.316C129.332 124.184 129.492 124.632 129.796 124.952C130.108 125.272 130.54 125.432 131.092 125.432C131.508 125.432 131.884 125.392 132.22 125.312C132.556 125.232 132.904 125.108 133.264 124.94V126.164C132.936 126.324 132.6 126.44 132.256 126.512C131.912 126.584 131.5 126.62 131.02 126.62C130.38 126.62 129.812 126.5 129.316 126.26C128.828 126.012 128.444 125.64 128.164 125.144C127.884 124.648 127.744 124.032 127.744 123.296C127.744 122.544 127.868 121.916 128.116 121.412C128.372 120.908 128.724 120.524 129.172 120.26C129.628 119.996 130.156 119.864 130.756 119.864ZM130.768 121.004C130.368 121.004 130.044 121.132 129.796 121.388C129.548 121.644 129.4 122.028 129.352 122.54H132.112C132.104 122.092 131.992 121.724 131.776 121.436C131.56 121.148 131.224 121.004 130.768 121.004Z" fill="#363636"/>
</g>
<path d="M51.728 149.5H50.168V144.196C50.168 144.028 50.168 143.852 50.168 143.668C50.176 143.484 50.184 143.296 50.192 143.104C50.2 142.912 50.208 142.736 50.216 142.576C50.152 142.648 50.056 142.74 49.928 142.852C49.808 142.964 49.684 143.076 49.556 143.188L48.596 143.956L47.828 142.996L50.444 140.932H51.728V149.5ZM59.9272 142.876C59.9272 143.268 59.8472 143.608 59.6872 143.896C59.5352 144.176 59.3192 144.408 59.0392 144.592C58.7672 144.776 58.4552 144.908 58.1032 144.988V145.024C58.7912 145.104 59.3072 145.316 59.6512 145.66C60.0032 146.004 60.1792 146.46 60.1792 147.028C60.1792 147.524 60.0592 147.968 59.8192 148.36C59.5792 148.752 59.2072 149.06 58.7032 149.284C58.2072 149.508 57.5672 149.62 56.7832 149.62C56.3192 149.62 55.8872 149.58 55.4872 149.5C55.0872 149.428 54.7072 149.312 54.3472 149.152V147.796C54.7152 147.98 55.1032 148.12 55.5112 148.216C55.9192 148.312 56.3032 148.36 56.6632 148.36C57.3512 148.36 57.8352 148.236 58.1152 147.988C58.4032 147.74 58.5472 147.392 58.5472 146.944C58.5472 146.664 58.4752 146.432 58.3312 146.248C58.1952 146.064 57.9672 145.928 57.6472 145.84C57.3272 145.752 56.9032 145.708 56.3752 145.708H55.6672V144.472H56.3872C56.8992 144.472 57.2992 144.416 57.5872 144.304C57.8752 144.192 58.0792 144.04 58.1992 143.848C58.3192 143.648 58.3792 143.42 58.3792 143.164C58.3792 142.828 58.2712 142.564 58.0552 142.372C57.8392 142.18 57.5032 142.084 57.0472 142.084C56.7672 142.084 56.5112 142.116 56.2792 142.18C56.0472 142.244 55.8352 142.328 55.6432 142.432C55.4512 142.528 55.2752 142.632 55.1152 142.744L54.3712 141.664C54.6992 141.424 55.0872 141.224 55.5352 141.064C55.9912 140.896 56.5232 140.812 57.1312 140.812C58.0192 140.812 58.7072 141 59.1952 141.376C59.6832 141.744 59.9272 142.244 59.9272 142.876ZM67.1304 149.5H61.2504V148.372L63.4224 146.164C63.8624 145.724 64.2184 145.348 64.4904 145.036C64.7624 144.724 64.9624 144.432 65.0904 144.16C65.2264 143.888 65.2944 143.596 65.2944 143.284C65.2944 142.892 65.1824 142.6 64.9584 142.408C64.7424 142.216 64.4544 142.12 64.0944 142.12C63.7344 142.12 63.3984 142.196 63.0864 142.348C62.7744 142.492 62.4464 142.7 62.1024 142.972L61.2624 141.964C61.5024 141.756 61.7584 141.568 62.0304 141.4C62.3024 141.224 62.6104 141.084 62.9544 140.98C63.3064 140.868 63.7144 140.812 64.1784 140.812C64.7304 140.812 65.2024 140.912 65.5944 141.112C65.9944 141.304 66.3024 141.576 66.5184 141.928C66.7424 142.272 66.8544 142.668 66.8544 143.116C66.8544 143.58 66.7584 144.008 66.5664 144.4C66.3824 144.784 66.1144 145.168 65.7624 145.552C65.4184 145.936 65.0064 146.356 64.5264 146.812L63.1944 148.096V148.168H67.1304V149.5ZM73.9976 149.5H68.1176V148.372L70.2896 146.164C70.7296 145.724 71.0856 145.348 71.3576 145.036C71.6296 144.724 71.8296 144.432 71.9576 144.16C72.0936 143.888 72.1616 143.596 72.1616 143.284C72.1616 142.892 72.0496 142.6 71.8256 142.408C71.6096 142.216 71.3216 142.12 70.9616 142.12C70.6016 142.12 70.2656 142.196 69.9536 142.348C69.6416 142.492 69.3136 142.7 68.9696 142.972L68.1296 141.964C68.3696 141.756 68.6256 141.568 68.8976 141.4C69.1696 141.224 69.4776 141.084 69.8216 140.98C70.1736 140.868 70.5816 140.812 71.0456 140.812C71.5976 140.812 72.0696 140.912 72.4616 141.112C72.8616 141.304 73.1696 141.576 73.3856 141.928C73.6096 142.272 73.7216 142.668 73.7216 143.116C73.7216 143.58 73.6256 144.008 73.4336 144.4C73.2496 144.784 72.9816 145.168 72.6296 145.552C72.2856 145.936 71.8736 146.356 71.3936 146.812L70.0616 148.096V148.168H73.9976V149.5ZM82.5189 140.38L82.2789 142.588L84.5109 141.964L84.6909 143.32L82.6269 143.476L83.9709 145.264L82.7469 145.924L81.7989 144.004L80.9469 145.912L79.6749 145.264L81.0069 143.476L78.9549 143.308L79.1709 141.964L81.3549 142.588L81.1029 140.38H82.5189ZM89.0814 140.38L88.8414 142.588L91.0734 141.964L91.2534 143.32L89.1894 143.476L90.5334 145.264L89.3094 145.924L88.3614 144.004L87.5094 145.912L86.2374 145.264L87.5694 143.476L85.5174 143.308L85.7334 141.964L87.9174 142.588L87.6654 140.38H89.0814ZM95.6439 140.38L95.4039 142.588L97.6359 141.964L97.8159 143.32L95.7519 143.476L97.0959 145.264L95.8719 145.924L94.9239 144.004L94.0719 145.912L92.7999 145.264L94.1319 143.476L92.0799 143.308L92.2959 141.964L94.4799 142.588L94.2279 140.38H95.6439ZM102.206 140.38L101.966 142.588L104.198 141.964L104.378 143.32L102.314 143.476L103.658 145.264L102.434 145.924L101.486 144.004L100.634 145.912L99.3624 145.264L100.694 143.476L98.6424 143.308L98.8584 141.964L101.042 142.588L100.79 140.38H102.206ZM112.847 140.38L112.607 142.588L114.839 141.964L115.019 143.32L112.955 143.476L114.299 145.264L113.075 145.924L112.127 144.004L111.275 145.912L110.003 145.264L111.335 143.476L109.283 143.308L109.499 141.964L111.683 142.588L111.431 140.38H112.847ZM119.41 140.38L119.17 142.588L121.402 141.964L121.582 143.32L119.518 143.476L120.862 145.264L119.638 145.924L118.69 144.004L117.838 145.912L116.566 145.264L117.898 143.476L115.846 143.308L116.062 141.964L118.246 142.588L117.994 140.38H119.41ZM125.972 140.38L125.732 142.588L127.964 141.964L128.144 143.32L126.08 143.476L127.424 145.264L126.2 145.924L125.252 144.004L124.4 145.912L123.128 145.264L124.46 143.476L122.408 143.308L122.624 141.964L124.808 142.588L124.556 140.38H125.972ZM132.535 140.38L132.295 142.588L134.527 141.964L134.707 143.32L132.643 143.476L133.987 145.264L132.763 145.924L131.815 144.004L130.963 145.912L129.691 145.264L131.023 143.476L128.971 143.308L129.187 141.964L131.371 142.588L131.119 140.38H132.535ZM143.175 140.38L142.935 142.588L145.167 141.964L145.347 143.32L143.283 143.476L144.627 145.264L143.403 145.924L142.455 144.004L141.603 145.912L140.331 145.264L141.663 143.476L139.611 143.308L139.827 141.964L142.011 142.588L141.759 140.38H143.175ZM149.738 140.38L149.498 142.588L151.73 141.964L151.91 143.32L149.846 143.476L151.19 145.264L149.966 145.924L149.018 144.004L148.166 145.912L146.894 145.264L148.226 143.476L146.174 143.308L146.39 141.964L148.574 142.588L148.322 140.38H149.738ZM156.3 140.38L156.06 142.588L158.292 141.964L158.472 143.32L156.408 143.476L157.752 145.264L156.528 145.924L155.58 144.004L154.728 145.912L153.456 145.264L154.788 143.476L152.736 143.308L152.952 141.964L155.136 142.588L154.884 140.38H156.3ZM162.863 140.38L162.623 142.588L164.855 141.964L165.035 143.32L162.971 143.476L164.315 145.264L163.091 145.924L162.143 144.004L161.291 145.912L160.019 145.264L161.351 143.476L159.299 143.308L159.515 141.964L161.699 142.588L161.447 140.38H162.863Z" fill="#5A5A5A"/>
<path d="M408.668 127.503C412.766 127.5 416.353 127.515 420 127.5C419.997 131.595 419.985 135.191 419.997 138.832C418.911 138.837 418.079 138.838 417.023 138.842C417.017 136.697 417.023 134.448 417.022 132.585L410.353 139.254C410.024 139.583 409.424 139.582 409.093 139.251L408.25 138.408C407.918 138.076 407.917 137.476 408.245 137.147L414.914 130.478C412.831 130.481 410.747 130.475 408.664 130.484C408.67 129.48 408.664 128.387 408.668 127.503Z" fill="#277EB8"/>
<ellipse cx="308.5" cy="199" rx="24.5" ry="15" fill="white"/>
<path fill-rule="evenodd" clip-rule="evenodd" d="M315.256 169.65L318.809 173.786L324.157 172.927C328.726 172.194 332.878 175.72 332.96 180.397L333.053 185.875L337.694 188.697C341.661 191.104 342.602 196.507 339.691 200.145L336.281 204.4L338.047 209.582C339.552 214.003 336.841 218.755 332.3 219.647L326.985 220.69L325.045 225.808C323.389 230.174 318.296 232.051 314.251 229.781L309.513 227.125L304.776 229.781C300.731 232.051 295.637 230.174 293.982 225.808L292.042 220.69L286.727 219.647C282.186 218.756 279.475 214.003 280.98 209.582L282.746 204.4L282.754 201.236L282.746 199.662L281.967 198.088C279.056 194.45 277.366 191.105 281.333 188.697L285.974 185.875L286.067 180.397C286.149 175.72 290.301 172.194 294.867 172.927L300.218 173.786L303.771 169.65C306.803 166.117 312.224 166.117 315.256 169.65ZM323.443 194.276C324.727 192.869 324.642 190.678 323.25 189.379C321.863 188.083 319.694 188.17 318.413 189.577L306.734 202.375L300.474 196.272C299.111 194.948 296.943 194.987 295.63 196.366C294.321 197.745 294.36 199.939 295.723 201.267L304.505 209.82C305.168 210.466 306.06 210.812 306.981 210.787C307.901 210.758 308.771 210.357 309.395 209.675L323.443 194.276Z" fill="#277EB8"/>
<defs>
<filter id="filter0_f_169_349" x="44" y="114.896" width="92.5996" height="14.724" filterUnits="userSpaceOnUse" color-interpolation-filters="sRGB">
<feFlood flood-opacity="0" result="BackgroundImageFix"/>
<feBlend mode="normal" in="SourceGraphic" in2="BackgroundImageFix" result="shape"/>
<feGaussianBlur stdDeviation="1.5" result="effect1_foregroundBlur_169_349"/>
</filter>
</defs>
</svg>
