<svg width="70" height="70" viewBox="0 0 70 70" fill="none" xmlns="http://www.w3.org/2000/svg">
<path d="M61.4093 0.714355H8.59074C4.24758 0.714355 0.714294 4.24764 0.714294 8.5908V42.8765C0.714294 47.2197 4.24758 50.753 8.59074 50.753H28.5135C29.7932 50.753 30.8301 49.7161 30.8301 48.4364C30.8301 47.1567 29.7932 46.1198 28.5135 46.1198H8.59074C6.80232 46.1198 5.3475 44.6649 5.3475 42.8765V8.5908C5.3475 8.32115 5.39013 8.06354 5.45221 7.81242L33.5887 29.4235C34.0048 29.7432 34.5024 29.9035 35 29.9035C35.4976 29.9035 35.9952 29.7432 36.4113 29.4235L64.5478 7.81242C64.6099 8.06354 64.6525 8.32115 64.6525 8.5908V35.0001C64.6525 36.2798 65.6894 37.3167 66.9691 37.3167C68.2488 37.3167 69.2857 36.2798 69.2857 35.0001V8.5908C69.2857 4.24764 65.7524 0.714355 61.4093 0.714355ZM35 24.6662L9.84912 5.34756H60.15L35 24.6662Z" fill="#277EB8"/>
<path d="M50.7529 32.6836C40.5339 32.6836 32.2201 40.9974 32.2201 51.2164C32.2201 61.4354 40.5339 69.7492 50.7529 69.7492C60.9719 69.7492 69.2857 61.4354 69.2857 51.2164C69.2857 40.9974 60.9719 32.6836 50.7529 32.6836ZM50.7529 65.116C43.0887 65.116 36.8533 58.8807 36.8533 51.2164C36.8533 43.5522 43.0887 37.3168 50.7529 37.3168C58.4172 37.3168 64.6525 43.5522 64.6525 51.2164C64.6525 58.8807 58.4172 65.116 50.7529 65.116Z" fill="#277EB8"/>
<path d="M55.6326 44.6017L48.3195 51.861L45.9983 49.159C45.1653 48.1878 43.7021 48.0776 42.7319 48.9106C41.7617 49.7437 41.6505 51.2078 42.4836 52.177L46.4273 56.7676C46.8471 57.255 47.4504 57.5478 48.0925 57.5729C48.1231 57.5738 48.1537 57.5747 48.1843 57.5747C48.7949 57.5747 49.3815 57.3338 49.8161 56.902L58.8962 47.8885C59.8043 46.9869 59.8099 45.52 58.9083 44.6129C58.0076 43.7057 56.5416 43.702 55.6326 44.6017Z" fill="#277EB8"/>
</svg>
