<svg width="88" height="88" viewBox="0 0 88 88" fill="none" xmlns="http://www.w3.org/2000/svg">
<path fill-rule="evenodd" clip-rule="evenodd" d="M88 44C88 68.3005 68.3005 88 44 88C19.6995 88 0 68.3005 0 44C0 19.6995 19.6995 0 44 0C68.3005 0 88 19.6995 88 44ZM38.5 27.5V44C38.5 47.0375 40.9625 49.5 44 49.5C47.0375 49.5 49.5 47.0375 49.5 44V27.5C49.5 24.4624 47.0375 22 44 22C40.9625 22 38.5 24.4624 38.5 27.5ZM44 66C47.0375 66 49.5 63.5375 49.5 60.5C49.5 57.4625 47.0375 55 44 55C40.9625 55 38.5 57.4625 38.5 60.5C38.5 63.5375 40.9625 66 44 66Z" fill="#D42626"/>
</svg>
