<svg width="20" height="20" viewBox="0 0 20 20" fill="none" xmlns="http://www.w3.org/2000/svg">
<path d="M9.99991 0.400024C8.1012 0.400024 6.24514 0.963054 4.66643 2.01792C3.08772 3.07278 1.85726 4.57209 1.13066 6.32626C0.404062 8.08043 0.21395 10.0107 0.584368 11.8729C0.954786 13.7351 1.8691 15.4457 3.21168 16.7882C4.55427 18.1308 6.26482 19.0451 8.12704 19.4156C9.98926 19.786 11.9195 19.5959 13.6737 18.8693C15.4278 18.1427 16.9272 16.9122 17.982 15.3335C19.0369 13.7548 19.5999 11.8987 19.5999 10C19.5999 7.45394 18.5885 5.01215 16.7881 3.2118C14.9878 1.41145 12.546 0.400024 9.99991 0.400024ZM9.99991 17.742C8.4687 17.742 6.97187 17.2879 5.69872 16.4372C4.42556 15.5865 3.43326 14.3774 2.84729 12.9627C2.26132 11.5481 2.10801 9.99143 2.40673 8.48965C2.70545 6.98786 3.4428 5.60838 4.52553 4.52565C5.60826 3.44292 6.98774 2.70557 8.48953 2.40685C9.99132 2.10812 11.548 2.26144 12.9626 2.84741C14.3773 3.43338 15.5864 4.42568 16.4371 5.69883C17.2878 6.97199 17.7418 8.46881 17.7418 10C17.7418 12.0533 16.9262 14.0225 15.4743 15.4744C14.0224 16.9263 12.0532 17.742 9.99991 17.742Z" fill="#0CBC8B"/>
<path d="M9.07081 11.1644L6.94023 9.03383L5.6272 10.3469L8.41429 13.134C8.58849 13.3079 8.82461 13.4057 9.07081 13.4057C9.317 13.4057 9.55313 13.3079 9.72732 13.134L14.6822 8.17912L13.3691 6.86609L9.07081 11.1644Z" fill="#0CBC8B"/>
</svg>
