<svg width="69" height="66" viewBox="0 0 69 66" fill="none" xmlns="http://www.w3.org/2000/svg">
<path d="M60.3749 37.0625C60.3749 31.9433 56.9935 27.6491 52.381 26.2034V24.97C52.381 14.9681 44.3125 6.83118 34.3947 6.83118C24.477 6.83118 16.4085 14.9681 16.4085 24.97V26.2034C11.796 27.6491 8.41455 31.9406 8.41455 37.0625C8.41455 43.3587 13.496 48.4832 19.7392 48.4832H21.0716C23.6429 48.4832 25.7347 46.3738 25.7347 43.7806V30.3444C25.7347 27.7513 23.6429 25.6418 21.0716 25.6418H20.4054V24.97C20.4054 17.1904 26.6806 10.862 34.3947 10.862C42.1089 10.862 48.3841 17.1904 48.3841 24.97V25.6418H47.7179C45.1465 25.6418 43.0548 27.7513 43.0548 30.3444V43.7806C43.0548 46.3738 45.1465 48.4832 47.7179 48.4832H48.1283C47.2196 52.326 43.8089 55.2013 39.724 55.2013H33.7872C32.684 55.2013 31.7887 56.1042 31.7887 57.2167C31.7887 58.3292 32.684 59.2321 33.7872 59.2321H39.724C46.1937 59.2321 51.483 54.293 52.2318 47.9673C56.9216 46.5699 60.3749 42.2381 60.3749 37.0625Z" fill="white"/>
</svg>
