<svg width="14" height="14" viewBox="0 0 14 14" fill="none" xmlns="http://www.w3.org/2000/svg">
<path d="M13.8401 8.38623C13.7697 8.31563 13.6814 8.26555 13.5846 8.24136C13.4879 8.21717 13.3864 8.21978 13.291 8.24892C12.244 8.56552 11.1307 8.59207 10.0698 8.32573C9.00885 8.05939 8.04004 7.51015 7.26658 6.73654C6.49313 5.96292 5.944 4.99391 5.67772 3.93277C5.41144 2.87162 5.43798 1.7581 5.75451 0.710848C5.78389 0.615422 5.7867 0.513791 5.76265 0.416886C5.7386 0.31998 5.68859 0.231466 5.618 0.160864C5.54741 0.0902608 5.45891 0.0402403 5.36203 0.0161818C5.26514 -0.00787667 5.16353 -0.00506301 5.06813 0.0243202C3.62056 0.467848 2.34972 1.35673 1.43646 2.56447C0.637789 3.62506 0.15062 4.88739 0.0296862 6.20964C-0.0912479 7.53189 0.158843 8.86168 0.751863 10.0496C1.34488 11.2375 2.25734 12.2365 3.38671 12.9344C4.51608 13.6322 5.81763 14.0012 7.14513 14C8.69385 14.0047 10.2014 13.5012 11.4364 12.5665C12.6439 11.653 13.5326 10.3819 13.976 8.93408C14.0051 8.83901 14.0078 8.73784 13.9838 8.64135C13.9599 8.54487 13.9102 8.4567 13.8401 8.38623Z" fill="#0B171F"/>
</svg>
