<svg width="21" height="26" viewBox="0 0 21 26" fill="none" xmlns="http://www.w3.org/2000/svg">
<path d="M8.05099 6.16553C9.90372 6.16766 11.68 6.9046 12.99 8.21468C14.3001 9.52476 15.0371 11.301 15.0392 13.1537C14.6565 22.4176 1.44543 22.4176 1.06682 13.1537C1.06895 11.3017 1.80534 9.52606 3.11455 8.2161C4.42376 6.90613 6.19896 6.16872 8.05099 6.16553ZM8.65516 18.9014C15.5024 17.9991 15.5024 8.30831 8.65516 7.40608V18.9014Z" fill="#0B171F"/>
<path d="M8.05098 5.16688C7.89075 5.16688 7.73708 5.10322 7.62377 4.98992C7.51047 4.87662 7.44682 4.72295 7.44682 4.56271V3.10465C7.44682 2.94442 7.51047 2.79075 7.62377 2.67744C7.73708 2.56414 7.89075 2.50049 8.05098 2.50049C8.21122 2.50049 8.36489 2.56414 8.4782 2.67744C8.5915 2.79075 8.65515 2.94442 8.65515 3.10465V4.56271C8.65515 4.72295 8.5915 4.87662 8.4782 4.98992C8.36489 5.10322 8.21122 5.16688 8.05098 5.16688Z" fill="#0B171F"/>
<path d="M8.05098 21.1528C8.21122 21.1528 8.36489 21.2165 8.4782 21.3298C8.5915 21.4431 8.65515 21.5968 8.65515 21.757V23.2151C8.65515 23.3753 8.5915 23.529 8.4782 23.6423C8.36489 23.7556 8.21122 23.8192 8.05098 23.8192C7.89075 23.8192 7.73708 23.7556 7.62377 23.6423C7.51047 23.529 7.44682 23.3753 7.44682 23.2151V21.7449C7.44998 21.5868 7.51503 21.4362 7.62799 21.3255C7.74095 21.2148 7.89282 21.1528 8.05098 21.1528Z" fill="#0B171F"/>
<path d="M13.702 18.8048C13.7579 18.7483 13.8243 18.7035 13.8976 18.6729C13.9709 18.6422 14.0496 18.6265 14.129 18.6265C14.2084 18.6265 14.2871 18.6422 14.3603 18.6729C14.4336 18.7035 14.5001 18.7483 14.5559 18.8048L15.587 19.836C15.7003 19.9497 15.7637 20.1038 15.7633 20.2643C15.7629 20.4248 15.6988 20.5786 15.585 20.6919C15.4713 20.8051 15.3172 20.8685 15.1567 20.8681C14.9962 20.8677 14.8424 20.8036 14.7291 20.6898L13.702 19.6587C13.6455 19.6029 13.6007 19.5364 13.5701 19.4631C13.5394 19.3899 13.5237 19.3112 13.5237 19.2318C13.5237 19.1524 13.5394 19.0737 13.5701 19.0004C13.6007 18.9271 13.6455 18.8607 13.702 18.8048Z" fill="#0B171F"/>
<path d="M16.6422 12.5498H18.1003C18.2605 12.5498 18.4142 12.6135 18.5275 12.7268C18.6408 12.8401 18.7045 12.9937 18.7045 13.154C18.7045 13.3142 18.6408 13.4679 18.5275 13.5812C18.4142 13.6945 18.2605 13.7581 18.1003 13.7581H16.6422C16.482 13.7581 16.3283 13.6945 16.215 13.5812C16.1017 13.4679 16.0381 13.3142 16.0381 13.154C16.0381 12.9937 16.1017 12.8401 16.215 12.7268C16.3283 12.6135 16.482 12.5498 16.6422 12.5498Z" fill="#0B171F"/>
<path d="M14.5559 7.50663C14.4414 7.61335 14.2899 7.67145 14.1334 7.66869C13.9769 7.66593 13.8275 7.60252 13.7169 7.49183C13.6062 7.38113 13.5428 7.23179 13.54 7.07527C13.5372 6.91875 13.5953 6.76727 13.702 6.65274L14.7291 5.62163C14.8424 5.50786 14.9962 5.44374 15.1567 5.44336C15.3172 5.44298 15.4713 5.50638 15.585 5.61962C15.6988 5.73285 15.7629 5.88664 15.7633 6.04715C15.7637 6.20766 15.7003 6.36175 15.587 6.47552L14.5559 7.50663Z" fill="#0B171F"/>
<path d="M11.3377 20.4358C11.4103 20.4022 11.4889 20.3833 11.5689 20.3803C11.6489 20.3773 11.7287 20.3902 11.8036 20.4184C11.8786 20.4465 11.9472 20.4892 12.0055 20.544C12.0638 20.5989 12.1106 20.6648 12.1432 20.7379L13.557 23.8715C13.6237 24.0189 13.6292 24.1868 13.5722 24.3382C13.5152 24.4897 13.4003 24.6123 13.2529 24.679C13.1055 24.7458 12.9376 24.7513 12.7861 24.6943C12.6347 24.6372 12.5121 24.5224 12.4453 24.375L11.0356 21.2413C11.0008 21.1689 10.9811 21.0901 10.9775 21.0099C10.974 20.9296 10.9867 20.8494 11.0149 20.7742C11.0431 20.6989 11.0862 20.6301 11.1417 20.572C11.1972 20.5138 11.2638 20.4675 11.3377 20.4358Z" fill="#0B171F"/>
<path d="M15.5427 15.9166C15.5988 15.7665 15.7122 15.6448 15.858 15.5784C16.0038 15.5119 16.17 15.5061 16.3201 15.5621L19.5423 16.7705C19.6765 16.8352 19.782 16.9473 19.8386 17.0851C19.8952 17.2229 19.8989 17.3768 19.8489 17.5172C19.799 17.6575 19.6989 17.7745 19.568 17.8456C19.437 17.9167 19.2844 17.9369 19.1395 17.9023L15.9173 16.6939C15.8412 16.6682 15.771 16.6275 15.7108 16.5743C15.6506 16.521 15.6016 16.4563 15.5667 16.3839C15.5318 16.3115 15.5118 16.2329 15.5076 16.1527C15.5035 16.0724 15.5154 15.9922 15.5427 15.9166Z" fill="#0B171F"/>
<path d="M19.204 8.60643L16.0905 10.0645C15.9452 10.1323 15.7789 10.1397 15.6282 10.0849C15.4775 10.0301 15.3548 9.91775 15.2869 9.77247C15.2191 9.62719 15.2118 9.46091 15.2665 9.31022C15.3213 9.15952 15.4337 9.03676 15.579 8.96892L18.6924 7.51087C18.8377 7.44304 19.004 7.43569 19.1547 7.49046C19.3054 7.54522 19.4281 7.6576 19.496 7.80288C19.5638 7.94816 19.5711 8.11444 19.5164 8.26513C19.4616 8.41583 19.3492 8.53859 19.204 8.60643Z" fill="#0B171F"/>
<path d="M11.4948 5.25932C11.4414 5.41047 11.3301 5.53422 11.1855 5.60333C11.0408 5.67245 10.8747 5.68127 10.7235 5.62786C10.5723 5.57445 10.4486 5.46318 10.3795 5.31853C10.3104 5.17388 10.3016 5.00769 10.355 4.85654L11.5069 1.63432C11.5682 1.49455 11.6802 1.38319 11.8203 1.3226C11.9604 1.26201 12.1182 1.25668 12.2621 1.30769C12.4059 1.3587 12.5251 1.46227 12.5957 1.59758C12.6664 1.73289 12.6832 1.88991 12.6427 2.03709L11.4948 5.25932Z" fill="#0B171F"/>
</svg>
