<svg width="19" height="24" viewBox="0 0 19 24" fill="none" xmlns="http://www.w3.org/2000/svg">
<path d="M7.05111 5.16528C8.90384 5.16742 10.6801 5.90435 11.9902 7.21443C13.3002 8.52451 14.0372 10.3007 14.0393 12.1535C13.6567 21.4174 0.445557 21.4174 0.066946 12.1535C0.0690756 10.3014 0.805461 8.52582 2.11467 7.21585C3.42388 5.90589 5.19908 5.16848 7.05111 5.16528ZM7.65528 17.9011C14.5025 16.9989 14.5025 7.30806 7.65528 6.40584V17.9011Z" fill="#D3E8F5"/>
<path d="M7.05111 4.16639C6.89087 4.16639 6.7372 4.10274 6.6239 3.98943C6.51059 3.87613 6.44694 3.72246 6.44694 3.56222V2.10417C6.44694 1.94393 6.51059 1.79026 6.6239 1.67696C6.7372 1.56365 6.89087 1.5 7.05111 1.5C7.21134 1.5 7.36501 1.56365 7.47832 1.67696C7.59162 1.79026 7.65527 1.94393 7.65527 2.10417V3.56222C7.65527 3.72246 7.59162 3.87613 7.47832 3.98943C7.36501 4.10274 7.21134 4.16639 7.05111 4.16639Z" fill="#D3E8F5"/>
<path d="M7.05111 20.1526C7.21134 20.1526 7.36501 20.2162 7.47832 20.3295C7.59162 20.4428 7.65527 20.5965 7.65527 20.7568V22.2148C7.65527 22.375 7.59162 22.5287 7.47832 22.642C7.36501 22.7553 7.21134 22.819 7.05111 22.819C6.89087 22.819 6.7372 22.7553 6.6239 22.642C6.51059 22.5287 6.44694 22.375 6.44694 22.2148V20.7447C6.4501 20.5865 6.51515 20.436 6.62811 20.3253C6.74108 20.2145 6.89294 20.1526 7.05111 20.1526Z" fill="#D3E8F5"/>
<path d="M12.7022 17.8046C12.758 17.7481 12.8245 17.7032 12.8978 17.6726C12.971 17.642 13.0497 17.6262 13.1291 17.6262C13.2085 17.6262 13.2872 17.642 13.3605 17.6726C13.4338 17.7032 13.5002 17.7481 13.5561 17.8046L14.5872 18.8357C14.7004 18.9495 14.7638 19.1036 14.7634 19.2641C14.763 19.4246 14.6989 19.5784 14.5852 19.6916C14.4714 19.8048 14.3173 19.8682 14.1568 19.8679C13.9963 19.8675 13.8425 19.8034 13.7293 19.6896L12.7022 18.6585C12.6457 18.6027 12.6008 18.5362 12.5702 18.4629C12.5396 18.3896 12.5238 18.311 12.5238 18.2315C12.5238 18.1521 12.5396 18.0735 12.5702 18.0002C12.6008 17.9269 12.6457 17.8604 12.7022 17.8046Z" fill="#D3E8F5"/>
<path d="M15.6424 11.5493H17.1004C17.2607 11.5493 17.4143 11.613 17.5276 11.7263C17.6409 11.8396 17.7046 11.9932 17.7046 12.1535C17.7046 12.3137 17.6409 12.4674 17.5276 12.5807C17.4143 12.694 17.2607 12.7576 17.1004 12.7576H15.6424C15.4821 12.7576 15.3285 12.694 15.2152 12.5807C15.1019 12.4674 15.0382 12.3137 15.0382 12.1535C15.0382 11.9932 15.1019 11.8396 15.2152 11.7263C15.3285 11.613 15.4821 11.5493 15.6424 11.5493Z" fill="#D3E8F5"/>
<path d="M13.5561 6.50663C13.4415 6.61335 13.29 6.67145 13.1335 6.66869C12.977 6.66593 12.8277 6.60252 12.717 6.49183C12.6063 6.38113 12.5429 6.23179 12.5401 6.07527C12.5374 5.91875 12.5954 5.76727 12.7022 5.65274L13.7293 4.62163C13.8425 4.50786 13.9963 4.44374 14.1568 4.44336C14.3173 4.44298 14.4714 4.50638 14.5852 4.61962C14.6989 4.73285 14.763 4.88664 14.7634 5.04715C14.7638 5.20766 14.7004 5.36175 14.5872 5.47552L13.5561 6.50663Z" fill="#D3E8F5"/>
<path d="M10.3379 19.4358C10.4106 19.4022 10.4892 19.3833 10.5691 19.3803C10.6491 19.3773 10.7289 19.3902 10.8039 19.4184C10.8788 19.4465 10.9474 19.4892 11.0057 19.544C11.064 19.5989 11.1109 19.6648 11.1435 19.7379L12.5572 22.8715C12.624 23.0189 12.6295 23.1868 12.5724 23.3382C12.5154 23.4897 12.4005 23.6123 12.2531 23.679C12.1057 23.7458 11.9378 23.7513 11.7864 23.6943C11.6349 23.6372 11.5123 23.5224 11.4456 23.375L10.0358 20.2413C10.0011 20.1689 9.98131 20.0901 9.97775 20.0099C9.9742 19.9296 9.98691 19.8494 10.0151 19.7742C10.0433 19.6989 10.0865 19.6301 10.142 19.572C10.1974 19.5138 10.2641 19.4675 10.3379 19.4358Z" fill="#D3E8F5"/>
<path d="M14.5428 14.9166C14.5989 14.7665 14.7123 14.6448 14.8581 14.5784C15.0039 14.5119 15.1701 14.5061 15.3202 14.5621L18.5424 15.7705C18.6766 15.8352 18.7821 15.9473 18.8387 16.0851C18.8953 16.2229 18.899 16.3768 18.8491 16.5172C18.7991 16.6575 18.699 16.7745 18.5681 16.8456C18.4372 16.9167 18.2846 16.9369 18.1396 16.9023L14.9174 15.6939C14.8413 15.6682 14.7711 15.6275 14.7109 15.5743C14.6507 15.521 14.6017 15.4563 14.5668 15.3839C14.532 15.3115 14.5119 15.2329 14.5078 15.1527C14.5036 15.0724 14.5156 14.9922 14.5428 14.9166Z" fill="#D3E8F5"/>
<path d="M18.2042 7.60618L15.0907 9.06424C14.9454 9.13207 14.7792 9.13941 14.6285 9.08465C14.4778 9.02988 14.355 8.9175 14.2872 8.77222C14.2193 8.62694 14.212 8.46067 14.2668 8.30997C14.3215 8.15928 14.4339 8.03651 14.5792 7.96868L17.6927 6.51063C17.8379 6.44279 18.0042 6.43545 18.1549 6.49021C18.3056 6.54498 18.4284 6.65736 18.4962 6.80264C18.564 6.94792 18.5714 7.1142 18.5166 7.26489C18.4619 7.41558 18.3495 7.53835 18.2042 7.60618Z" fill="#D3E8F5"/>
<path d="M10.4948 4.25907C10.4414 4.41023 10.3301 4.53397 10.1855 4.60309C10.0408 4.6722 9.87466 4.68103 9.7235 4.62761C9.57235 4.5742 9.4486 4.46293 9.37949 4.31828C9.31037 4.17363 9.30155 4.00745 9.35496 3.85629L10.5069 0.634072C10.5682 0.49431 10.6802 0.382943 10.8203 0.322352C10.9604 0.261761 11.1182 0.256436 11.2621 0.307447C11.4059 0.358459 11.5251 0.462026 11.5957 0.597335C11.6664 0.732645 11.6832 0.889668 11.6427 1.03685L10.4948 4.25907Z" fill="#D3E8F5"/>
</svg>
