<svg width="52" height="52" viewBox="0 0 52 52" fill="none" xmlns="http://www.w3.org/2000/svg">
<path d="M26.0001 0C11.664 0 0.000167783 11.6638 0.000167783 26C0.000167783 30.4765 1.1566 34.8784 3.34964 38.7626L0.0419937 50.5643C-0.0665277 50.9521 0.0386025 51.3681 0.318949 51.6563C0.534862 51.879 0.828774 52 1.1306 52C1.22103 52 1.3126 51.9887 1.4019 51.9672L13.7191 48.9162C17.48 50.9351 21.7158 52 26.0001 52C40.3362 52 52 40.3362 52 26C52 11.6638 40.3362 0 26.0001 0ZM39.0792 35.1746C38.523 36.7143 35.8552 38.1194 34.5733 38.3082C33.4225 38.4766 31.9665 38.549 30.3681 38.047C29.3993 37.7418 28.1558 37.3371 26.563 36.6577C19.8675 33.8023 15.495 27.1451 15.1604 26.7054C14.8269 26.2657 12.4349 23.1321 12.4349 19.8889C12.4349 16.6457 14.1588 15.0506 14.7715 14.3904C15.3842 13.7303 16.1066 13.5652 16.5519 13.5652C16.9973 13.5652 17.4416 13.5709 17.8316 13.589C18.2419 13.6093 18.7925 13.4341 19.3339 14.7205C19.8901 16.0409 21.2251 19.2841 21.3902 19.6153C21.5575 19.9454 21.6683 20.3309 21.4467 20.7706C21.2251 21.2103 21.1144 21.485 20.7798 21.8705C20.4451 22.256 20.0789 22.7297 19.7782 23.0258C19.4436 23.3548 19.0965 23.7109 19.4854 24.371C19.8743 25.0312 21.2138 27.1892 23.1989 28.9369C25.748 31.1819 27.8992 31.8783 28.5662 32.2083C29.2331 32.5384 29.6231 32.483 30.012 32.0433C30.4009 31.6024 31.6805 30.1182 32.1248 29.4591C32.569 28.8001 33.0144 28.9086 33.6271 29.129C34.2398 29.3483 37.5214 30.9423 38.1884 31.2723C38.8554 31.6024 39.3007 31.7675 39.468 32.0422C39.6353 32.3157 39.6353 33.6361 39.0792 35.1746Z" fill="#277EB8"/>
</svg>
