<svg width="52" height="52" viewBox="0 0 52 52" fill="none" xmlns="http://www.w3.org/2000/svg">
<path d="M26 0C11.6543 0 0 11.6543 0 26C0 30.6112 1.2646 34.9145 3.37364 38.671L0.0419497 50.5649C-0.0112771 50.7552 -0.0136821 50.9562 0.0349746 51.1477C0.0836314 51.3393 0.18165 51.5147 0.319257 51.6565C0.456864 51.7984 0.629252 51.9017 0.819233 51.9562C1.00921 52.0106 1.21015 52.0143 1.402 51.9669L13.8037 48.8935C17.4478 50.839 21.5829 52 26 52C40.3457 52 52 40.3457 52 26C52 11.6543 40.3457 0 26 0ZM26 2.26087C39.1238 2.26087 49.7391 12.8762 49.7391 26C49.7391 39.1238 39.1238 49.7391 26 49.7391C21.7925 49.7391 17.852 48.6422 14.4263 46.7254C14.1757 46.5854 13.8813 46.5459 13.6028 46.615L2.74219 49.3064L5.65438 38.9161C5.69605 38.7693 5.70756 38.6155 5.68821 38.4641C5.66885 38.3127 5.61904 38.1668 5.54178 38.0352C3.45991 34.5049 2.26087 30.3975 2.26087 26C2.26087 12.8762 12.8762 2.26087 26 2.26087ZM16.5525 12.4348C15.8278 12.4348 14.7929 12.7044 13.9428 13.6204C13.4321 14.1706 11.3043 16.2438 11.3043 19.8886C11.3043 23.6886 13.9398 26.9675 14.2585 27.3888H14.2607V27.391C14.2305 27.3512 14.6652 27.9807 15.2454 28.7356C15.8257 29.4904 16.6371 30.4818 17.6564 31.555C19.6951 33.7015 22.5615 36.1823 26.1192 37.6996C27.7576 38.3972 29.0501 38.8185 30.0294 39.1258C31.8442 39.6957 33.4971 39.6091 34.7388 39.4261C35.6682 39.2892 36.6904 38.843 37.7018 38.203C38.7132 37.5629 39.7044 36.7671 40.1415 35.5579C40.4546 34.6911 40.6138 33.89 40.6714 33.2308C40.7001 32.9012 40.7038 32.6103 40.6824 32.341C40.661 32.0717 40.6839 31.8654 40.4329 31.4535C39.9066 30.5893 39.3106 30.5668 38.6887 30.259C38.3431 30.088 37.3594 29.6076 36.3726 29.1374C35.387 28.6677 34.5336 28.2518 34.008 28.0644C33.6759 27.9449 33.2705 27.7729 32.6855 27.8392C32.1005 27.9054 31.5227 28.3275 31.1863 28.8261C30.8675 29.2987 29.5839 30.8138 29.1926 31.2592C29.1874 31.256 29.2214 31.2717 29.0667 31.1951C28.5828 30.9556 27.9909 30.752 27.115 30.2899C26.2391 29.8279 25.1434 29.1456 23.9445 28.0887V28.0864C22.1599 26.5154 20.91 24.543 20.5156 23.8804C20.5422 23.8488 20.5125 23.8871 20.5686 23.8319L20.5708 23.8297C20.9738 23.4327 21.331 22.9586 21.6328 22.6109C22.0607 22.1179 22.2496 21.6834 22.4541 21.2773C22.8619 20.4681 22.6348 19.5777 22.3989 19.1092V19.107C22.4152 19.1394 22.2713 18.8219 22.1163 18.4557C21.9609 18.0884 21.7627 17.6122 21.5511 17.1044C21.1279 16.0889 20.6553 14.9499 20.3743 14.2828V14.2806C20.0433 13.4948 19.5954 12.9287 19.0098 12.6556C18.4243 12.3825 17.907 12.4601 17.886 12.4591H17.8838C17.466 12.4398 17.0074 12.4348 16.5525 12.4348ZM16.5525 14.6957C16.9883 14.6957 17.418 14.701 17.7779 14.7177C18.1481 14.7362 18.125 14.7377 18.0538 14.7045C17.9815 14.6707 18.0796 14.6598 18.2901 15.1593C18.5652 15.8125 19.0401 16.9557 19.4647 17.9744C19.677 18.4837 19.8756 18.9617 20.0343 19.3366C20.193 19.7115 20.279 19.9209 20.3787 20.1204V20.1226L20.3809 20.1248C20.4788 20.3179 20.4701 20.1943 20.4361 20.2617C20.1976 20.7352 20.1652 20.8514 19.9239 21.1294C19.5565 21.5527 19.1817 22.0247 18.9834 22.2201C18.8098 22.3906 18.4966 22.6562 18.3011 23.1761C18.1053 23.6968 18.1967 24.4113 18.5109 24.9446C18.9292 25.6548 20.3076 27.8983 22.4497 29.7843C23.7988 30.9735 25.0556 31.7606 26.0596 32.2902C27.0636 32.8199 27.8814 33.1292 28.0644 33.2198C28.4989 33.4348 28.9738 33.6018 29.526 33.5355C30.0782 33.4692 30.5543 33.1342 30.8573 32.7914L30.8595 32.7892C31.2629 32.332 32.4614 30.9634 33.0365 30.1199C33.0609 30.1285 33.0529 30.1218 33.2441 30.1906V30.1928H33.2463C33.3335 30.2238 34.4266 30.7131 35.4012 31.1775C36.3757 31.6419 37.3649 32.1246 37.6863 32.2836C38.1502 32.5132 38.3693 32.6626 38.4259 32.6634C38.4298 32.7628 38.4336 32.8706 38.4193 33.0343C38.3797 33.4883 38.2583 34.1168 38.0153 34.7896C37.8962 35.1189 37.2761 35.7982 36.4941 36.2931C35.712 36.7881 34.7601 37.1376 34.4076 37.1895C33.3477 37.3457 32.0893 37.4027 30.7072 36.9688C29.7489 36.668 28.554 36.2786 27.0068 35.6197C23.8689 34.2815 21.202 32.0043 19.2969 29.9985C18.3443 28.9955 17.5812 28.0619 17.0382 27.3556C16.4963 26.6507 16.2596 26.2838 16.0623 26.0243L16.0601 26.0221C15.7099 25.5589 13.5652 22.5757 13.5652 19.8886C13.5652 17.0447 14.8861 15.9294 15.6009 15.1593C15.9761 14.755 16.3863 14.6957 16.5525 14.6957Z" fill="white"/>
</svg>
